<svg width="38" height="31" viewBox="0 0 38 31" fill="none" xmlns="http://www.w3.org/2000/svg">
<path d="M25.7844 22.035C24.6564 23.5636 23.1071 24.7823 21.2986 25.5634C21.684 25.395 22.289 25.515 22.6995 25.5061C23.5569 25.4918 24.3296 25.4828 25.0117 24.9455C26.5108 23.767 27.7787 22.3449 29.3221 21.2129C29.6477 20.9747 30.008 20.7418 30.4204 20.7132C30.8327 20.6845 31.2971 20.946 31.3144 21.3311C31.572 21.1389 31.8671 20.9947 32.1835 20.9066C32.3421 20.8641 32.5106 20.8647 32.669 20.9081C32.8274 20.9516 32.9691 21.0362 33.0775 21.152C33.2818 21.4063 33.2336 21.7646 33.1218 22.0637C32.854 22.7801 32.2162 23.3174 31.6882 23.8708C31.0851 24.4995 30.4416 25.0942 29.8153 25.7031C28.4434 27.0393 26.8769 28.0118 25.241 29.0435C22.7977 30.5838 20.4778 31.3253 17.574 30.4423C16.4703 30.0963 15.405 29.6524 14.3928 29.1169C13.4178 28.61 12.5545 27.9222 11.62 27.3527C10.988 26.9676 10.4986 26.3604 10.0323 25.8052C8.54424 24.0359 7.45923 22.0036 6.84332 19.832C7.05142 20.561 8.80679 21.5245 9.44844 21.9204C10.4807 22.5591 11.598 23.0703 12.7723 23.441C13.9037 23.7994 15.0795 24.0227 16.2714 24.1055C17.6915 24.2022 18.5663 23.8082 19.7976 23.1795L22.9846 21.5514C23.4421 21.327 23.9116 21.1244 24.3912 20.9442C24.6496 20.8203 24.9349 20.7523 25.2256 20.7454C25.3796 20.756 25.5286 20.8013 25.6595 20.8775C25.7904 20.9536 25.8994 21.0583 25.977 21.1824C26.1871 21.5263 25.9982 21.7395 25.7844 22.035Z" fill="#FF8A00"/>
<path d="M15.299 6.96674C15.5739 7.11148 15.8773 7.20345 16.1912 7.23719C16.4697 7.23707 16.7451 7.29266 16.9985 7.40018C17.0802 7.44065 17.1678 7.46962 17.2586 7.48615C17.3282 7.48972 17.398 7.48611 17.4667 7.4754C18.1527 7.40734 18.8155 7.66883 19.5073 7.62764C20.199 7.58645 22.1028 7.1548 22.7926 7.00077C25.2089 6.46345 26.1954 5.07358 28.7562 5.33865C31.6985 5.64314 33.9703 8.09511 35.0281 10.6008C35.6261 12.0221 35.9578 13.5281 36.0089 15.0534C36.0494 16.2087 36.1072 18.3132 35.4 19.3126C39.0476 14.1615 39.3366 5.57687 33.1514 2.08429C30.8835 0.803671 28.0202 0.375606 25.5384 1.36786C23.4554 2.19533 21.754 3.65506 19.8946 4.85686C19.1285 5.3629 18.3093 5.79556 17.4494 6.14822C17.0313 6.31756 16.5997 6.45649 16.1584 6.56375C15.773 6.65689 15.2952 6.64255 14.9329 6.77868C15.0501 6.84914 15.1725 6.91199 15.299 6.96674Z" fill="#FF8A00"/>
<path d="M22.771 7.1154C22.079 7.37306 21.3522 7.5412 20.611 7.61511C19.2038 7.73752 17.7845 7.64311 16.4104 7.3357C13.9941 6.79838 11.8014 5.08074 9.24057 5.34582C6.29633 5.6503 4.02649 8.10228 2.96672 10.608C2.36969 12.0295 2.038 13.5353 1.98595 15.0606C1.94741 16.2158 1.8896 18.3203 2.59676 19.3197C-1.05079 14.1615 -1.33018 5.57687 4.84541 2.08429C7.11332 0.803671 9.97663 0.375606 12.4584 1.36786C14.5414 2.19533 16.2428 3.65506 18.1003 4.85686C18.9458 5.41813 19.858 5.8869 20.8191 6.25389C21.3012 6.43349 21.8006 6.57022 22.3105 6.66226C22.5508 6.71047 22.7951 6.73924 23.0407 6.74823C23.1833 6.74823 23.5648 6.80554 23.6824 6.74823C23.3837 6.8754 23.0793 6.99719 22.771 7.1154Z" fill="#F3FEFF"/>
<path d="M2.59701 19.3125C3.79444 20.8753 5.1382 22.3365 6.61259 23.6792C9.08089 25.9592 12.53 28.2195 14.9559 29.3998C14.9559 29.3998 10.6359 25.1353 8.1059 21.7627C5.02293 17.654 2.95348 13.676 3.2136 10.0653C2.88097 10.7222 2.62267 11.4095 2.44286 12.116C2.21335 13.0547 2.06324 14.0087 1.9939 14.9692C1.86288 16.531 1.96885 18.2325 2.59701 19.3125Z" fill="#F3FEFF"/>
<path d="M24.1449 13.4092H21.8173V11.2438C21.8024 10.8301 21.615 10.4379 21.2949 10.1501C20.9747 9.86233 20.5468 9.70145 20.1014 9.70145C19.656 9.70145 19.2281 9.86233 18.9079 10.1501C18.5878 10.4379 18.4005 10.8301 18.3855 11.2438V13.4092H16.056C15.6108 13.4231 15.1889 13.5972 14.8793 13.8948C14.5697 14.1924 14.3966 14.5902 14.3966 15.0042C14.3966 15.4182 14.5697 15.816 14.8793 16.1136C15.1889 16.4111 15.6108 16.5853 16.056 16.5991H18.3855V18.7574C18.3778 18.9713 18.4165 19.1845 18.4993 19.3843C18.582 19.5841 18.7072 19.7663 18.8673 19.9202C19.0273 20.0741 19.2191 20.1965 19.4311 20.28C19.6432 20.3636 19.8711 20.4067 20.1014 20.4067C20.3317 20.4067 20.5596 20.3636 20.7717 20.28C20.9837 20.1965 21.1755 20.0741 21.3356 19.9202C21.4956 19.7663 21.6208 19.5841 21.7036 19.3843C21.7863 19.1845 21.825 18.9713 21.8173 18.7574V16.6081H24.1449C24.3751 16.6153 24.6045 16.5793 24.8194 16.5024C25.0343 16.4255 25.2304 16.3091 25.3959 16.1603C25.5615 16.0115 25.6931 15.8333 25.783 15.6362C25.8729 15.4391 25.9193 15.2272 25.9193 15.0131C25.9193 14.7991 25.8729 14.5872 25.783 14.3901C25.6931 14.193 25.5615 14.0148 25.3959 13.866C25.2304 13.7171 25.0343 13.6008 24.8194 13.5239C24.6045 13.447 24.3751 13.411 24.1449 13.4182V13.4092Z" fill="#FF8A00"/>
</svg>
