<svg width="38" height="28" viewBox="0 0 38 28" fill="none" xmlns="http://www.w3.org/2000/svg">
<path d="M25.7844 19.7999C24.6564 21.2266 23.1071 22.364 21.2986 23.0931C21.684 22.9359 22.289 23.0479 22.6995 23.0396C23.5569 23.0262 24.3296 23.0179 25.0117 22.5164C26.5108 21.4164 27.7787 20.0891 29.3221 19.0326C29.6477 18.8103 30.008 18.593 30.4204 18.5662C30.8327 18.5395 31.2971 18.7835 31.3144 19.1429C31.572 18.9635 31.8671 18.829 32.1835 18.7468C32.3421 18.7071 32.5106 18.7076 32.669 18.7482C32.8274 18.7887 32.9691 18.8677 33.0775 18.9758C33.2818 19.2132 33.2336 19.5475 33.1218 19.8267C32.854 20.4953 32.2162 20.9968 31.6882 21.5134C31.0851 22.1001 30.4416 22.6551 29.8153 23.2235C28.4434 24.4705 26.8769 25.3782 25.241 26.3411C22.7977 27.7788 20.4778 28.4708 17.574 27.6467C16.4703 27.3237 15.405 26.9095 14.3928 26.4097C13.4178 25.9366 12.5545 25.2947 11.62 24.7631C10.988 24.4037 10.4986 23.837 10.0323 23.3188C8.54424 21.6674 7.45923 19.7706 6.84332 17.7438C7.05142 18.4241 8.80679 19.3235 9.44844 19.6929C10.4807 20.2891 11.598 20.7662 12.7723 21.1122C13.9037 21.4467 15.0795 21.6551 16.2714 21.7323C17.6915 21.8226 18.5663 21.4549 19.7976 20.8681L22.9846 19.3486C23.4421 19.1391 23.9116 18.95 24.3912 18.7819C24.6496 18.6662 24.9349 18.6027 25.2256 18.5963C25.3796 18.6062 25.5286 18.6485 25.6595 18.7195C25.7904 18.7906 25.8994 18.8883 25.977 19.0042C26.1871 19.3251 25.9982 19.5241 25.7844 19.7999Z" fill="#FF8A00"/>
<path d="M15.299 5.73621C15.5739 5.8713 15.8773 5.95714 16.1912 5.98863C16.4697 5.98852 16.7451 6.0404 16.9985 6.14075C17.0802 6.17852 17.1678 6.20557 17.2586 6.22099C17.3282 6.22432 17.398 6.22096 17.4667 6.21096C18.1527 6.14744 18.8155 6.3915 19.5073 6.35305C20.199 6.3146 22.1028 5.91173 22.7926 5.76797C25.2089 5.26647 26.1954 3.96926 28.7562 4.21666C31.6985 4.50085 33.9703 6.78936 35.0281 9.12801C35.6261 10.4545 35.9578 11.8601 36.0089 13.2838C36.0494 14.362 36.1072 16.3262 35.4 17.259C39.0476 12.4513 39.3366 4.439 33.1514 1.17925C30.8835 -0.0159874 28.0202 -0.415515 25.5384 0.510587C23.4554 1.2829 21.754 2.6453 19.8946 3.76699C19.1285 4.23929 18.3093 4.64311 17.4494 4.97226C17.0313 5.13031 16.5997 5.25997 16.1584 5.36009C15.773 5.44701 15.2952 5.43364 14.9329 5.56068C15.0501 5.62645 15.1725 5.68511 15.299 5.73621Z" fill="#FF8A00"/>
<path d="M22.771 5.87496C22.079 6.11545 21.3522 6.27238 20.611 6.34135C19.2038 6.4556 17.7845 6.36749 16.4104 6.08057C13.9941 5.57907 11.8014 3.97595 9.24057 4.22335C6.29633 4.50753 4.02649 6.79604 2.96672 9.1347C2.36969 10.4615 2.038 11.8669 1.98595 13.2905C1.94741 14.3687 1.8896 16.3329 2.59676 17.2657C-1.05079 12.4513 -1.33018 4.439 4.84541 1.17925C7.11332 -0.0159874 9.97663 -0.415515 12.4584 0.510587C14.5414 1.2829 16.2428 2.6453 18.1003 3.76699C18.9458 4.29084 19.858 4.72836 20.8191 5.07089C21.3012 5.23851 21.8006 5.36612 22.3105 5.45203C22.5508 5.49703 22.7951 5.52388 23.0407 5.53227C23.1833 5.53227 23.5648 5.58576 23.6824 5.53227C23.3837 5.65096 23.0793 5.76463 22.771 5.87496Z" fill="#F3FEFF"/>
<path d="M2.59701 17.259C3.79444 18.7175 5.1382 20.0813 6.61259 21.3345C9.08089 23.4625 12.53 25.5721 14.9559 26.6738C14.9559 26.6738 10.6359 22.6935 8.1059 19.5458C5.02293 15.711 2.95348 11.9982 3.2136 8.62816C2.88097 9.2413 2.62267 9.88275 2.44286 10.5422C2.21335 11.4183 2.06324 12.3087 1.9939 13.2052C1.86288 14.6629 1.96885 16.2509 2.59701 17.259Z" fill="#F3FEFF"/>
<path d="M24.1449 11.7492H21.8173V9.72815C21.8024 9.34198 21.615 8.97595 21.2949 8.70735C20.9747 8.43874 20.5468 8.28859 20.1014 8.28859C19.656 8.28859 19.2281 8.43874 18.9079 8.70735C18.5878 8.97595 18.4005 9.34198 18.3855 9.72815V11.7492H16.056C15.6108 11.7621 15.1889 11.9246 14.8793 12.2024C14.5697 12.4802 14.3966 12.8514 14.3966 13.2378C14.3966 13.6242 14.5697 13.9955 14.8793 14.2732C15.1889 14.551 15.6108 14.7135 16.056 14.7264H18.3855V16.7408C18.3778 16.9405 18.4165 17.1395 18.4993 17.3259C18.582 17.5124 18.7072 17.6825 18.8673 17.8261C19.0273 17.9697 19.2191 18.0839 19.4311 18.1619C19.6432 18.2399 19.8711 18.2801 20.1014 18.2801C20.3317 18.2801 20.5596 18.2399 20.7717 18.1619C20.9837 18.0839 21.1755 17.9697 21.3356 17.8261C21.4956 17.6825 21.6208 17.5124 21.7036 17.3259C21.7863 17.1395 21.825 16.9405 21.8173 16.7408V14.7348H24.1449C24.3751 14.7415 24.6045 14.7079 24.8194 14.6361C25.0343 14.5643 25.2304 14.4558 25.3959 14.3169C25.5615 14.178 25.6931 14.0116 25.783 13.8277C25.8729 13.6437 25.9193 13.446 25.9193 13.2462C25.9193 13.0464 25.8729 12.8486 25.783 12.6647C25.6931 12.4807 25.5615 12.3144 25.3959 12.1755C25.2304 12.0366 25.0343 11.928 24.8194 11.8562C24.6045 11.7844 24.3751 11.7509 24.1449 11.7576V11.7492Z" fill="#FF8A00"/>
</svg>
